<svg width="51" height="50" viewBox="0 0 51 50" fill="none" xmlns="http://www.w3.org/2000/svg">

<path d="M20.6747 49.7118C16.3014 48.8075 12.2205 46.7904 9.01689 43.9494C0.792326 36.6559 -1.74951 25.1982 2.59535 15.0034C3.66233 12.4998 5.39695 9.95908 7.54621 7.75173L9.44103 5.8057L9.57467 17.1957C9.70259 28.098 9.73142 28.6472 10.2479 30.0211C11.2812 32.7696 12.389 34.5195 14.296 36.4158C19.2221 41.3143 26.4477 42.5368 32.5901 39.511C38.3636 36.667 42.0034 30.483 41.5804 24.2366C41.2963 20.0408 39.8832 16.9641 36.8321 13.8986C34.525 11.5806 31.8106 10.0665 28.8555 9.44908C25.8488 8.82094 25.9931 8.72915 25.9931 11.2702V13.464L27.6414 13.7673C34.025 14.9417 38.2469 21.2007 36.9163 27.5173C36.4914 29.5347 35.5435 31.3162 34.0219 32.9573C31.7094 35.4512 28.4561 36.6432 25.6154 36.6378C20.9181 36.6287 16.9959 33.9636 15.0949 30.0223C15.0949 30.0223 14.5969 28.8958 14.4369 28.1997C13.4957 24.1058 14.0973 15.4879 14.0973 15.4879L14.0244 2.88705L14.7694 2.50238C15.1792 2.29081 15.5722 2.11771 15.6427 2.11771C15.7133 2.11771 15.8028 7.90527 15.8418 14.979C15.8418 14.979 14.9371 24.2516 16.0551 27.805C16.2164 28.3177 16.5226 29.1946 16.5226 29.1946C17.5027 31.1883 19.0734 32.9419 21.1143 33.9072C22.6636 34.6399 23.4436 34.9715 25.7356 34.9715C27.2332 34.9715 28.5598 34.4996 30.0863 33.7986C31.8858 32.9722 33.9501 30.7812 34.7129 28.7808C36.8146 23.2692 33.8881 17.3396 28.2503 15.6861C25.9461 15.0103 25.9931 14.9731 25.9931 17.4748V19.66L27.0991 19.9554C31.0859 21.0201 32.3024 26.3557 29.1727 29.0973C28.0669 30.0659 27.0705 30.4941 25.3275 30.4941C23.4651 30.4941 21.6773 29.3685 20.7583 27.6421C20.2062 26.6051 20.1596 25.6214 20.1596 25.1709C20.1596 21.0094 20.0693 13.525 20.0693 13.525L19.9947 0.686615L20.5671 0.544669C20.8819 0.466597 22.1543 0.273417 23.3946 0.115379C27.601 -0.420596 33.8242 0.95391 38.005 3.34237C43.7049 6.59866 48.0177 12.1925 49.8135 18.6581C50.4311 20.8821 50.5 21.5288 50.5 25.1064C50.5 28.6681 50.4296 29.3362 49.825 31.5115C47.3826 40.2991 41.1698 46.5809 32.2864 49.2452C30.4168 49.8059 29.541 49.9128 26.242 49.983C23.5797 50.0397 21.8542 49.9556 20.6747 49.7118Z" fill="#9A1A1A"/>
</svg>
