<svg width="132" height="131" viewBox="0 0 132 131" fill="none" xmlns="http://www.w3.org/2000/svg">
<path d="M109.466 47.0075C109.206 46.4197 108.841 45.8822 108.389 45.4205L75.3885 12.9205C74.9196 12.4751 74.3739 12.1156 73.777 11.8588C73.612 11.783 73.436 11.7396 73.26 11.68C72.7998 11.5258 72.3207 11.4329 71.8355 11.4038C71.72 11.393 71.6155 11.3334 71.5 11.3334H33C26.9335 11.3334 22 16.1921 22 22.1667V108.833C22 114.808 26.9335 119.667 33 119.667H99C105.067 119.667 110 114.808 110 108.833V49.25C110 49.1363 109.939 49.0334 109.928 48.9142C109.902 48.436 109.807 47.9638 109.648 47.5113C109.593 47.338 109.543 47.17 109.466 47.0075ZM91.223 43.8334H77V29.8259L91.223 43.8334ZM33 108.833V22.1667H66V49.25C66 50.6866 66.5795 52.0644 67.6109 53.0802C68.6424 54.096 70.0413 54.6667 71.5 54.6667H99L99.011 108.833H33Z" fill="#6667AB"/>
<path d="M44 65.5H88V76.3334H44V65.5ZM44 87.1667H88V98H44V87.1667ZM44 43.8334H55V54.6667H44V43.8334Z" fill="#6667AB"/>
</svg>
