<svg width="113" height="113" viewBox="0 0 113 113" fill="none" xmlns="http://www.w3.org/2000/svg">
<path d="M56.5001 9.41663C30.5383 9.41663 9.41675 30.5382 9.41675 56.5C9.41675 82.4617 30.5383 103.583 56.5001 103.583C82.4618 103.583 103.583 82.4617 103.583 56.5C103.583 30.5382 82.4618 9.41663 56.5001 9.41663ZM56.5001 94.1666C35.7316 94.1666 18.8334 77.2684 18.8334 56.5C18.8334 35.7315 35.7316 18.8333 56.5001 18.8333C77.2685 18.8333 94.1668 35.7315 94.1668 56.5C94.1668 77.2684 77.2685 94.1666 56.5001 94.1666Z" fill="#6667AB"/>
<path d="M61.2084 32.9584H51.7917V58.4493L67.2963 73.9538L73.9539 67.2963L61.2084 54.5508V32.9584Z" fill="#6667AB"/>
</svg>
