<svg width="119" height="117" viewBox="0 0 119 117" fill="none" xmlns="http://www.w3.org/2000/svg">
<path d="M39.6667 58.5001C50.9717 58.5001 59.5001 50.1867 59.5001 39.1667C59.5001 28.1467 50.9717 19.8334 39.6667 19.8334C28.3617 19.8334 19.8334 28.1467 19.8334 39.1667C19.8334 50.1867 28.3617 58.5001 39.6667 58.5001ZM39.6667 29.5001C45.5077 29.5001 49.5834 33.4731 49.5834 39.1667C49.5834 44.8604 45.5077 48.8334 39.6667 48.8334C33.8258 48.8334 29.7501 44.8604 29.7501 39.1667C29.7501 33.4731 33.8258 29.5001 39.6667 29.5001ZM44.6251 63.3334H34.7084C21.0383 63.3334 9.91675 74.1746 9.91675 87.5001V92.3334H19.8334V87.5001C19.8334 79.5057 26.5073 73.0001 34.7084 73.0001H44.6251C52.8262 73.0001 59.5001 79.5057 59.5001 87.5001V92.3334H69.4167V87.5001C69.4167 74.1746 58.2952 63.3334 44.6251 63.3334ZM91.0549 13.2407L84.0438 20.0751C90.5938 26.4696 94.2084 34.9666 94.2084 44.0001C94.2084 53.0336 90.5938 61.5306 84.0438 67.9251L91.0549 74.7594C99.4841 66.5379 104.125 55.6146 104.125 44.0001C104.125 32.3856 99.4841 21.4622 91.0549 13.2407Z" fill="#6667AB"/>
<path d="M77.0277 26.9093L70.0166 33.7533C72.828 36.4841 74.375 40.1236 74.375 44C74.375 47.8763 72.828 51.5158 70.0166 54.2466L77.0277 61.0906C81.7083 56.528 84.2916 50.4621 84.2916 44C84.2916 37.5378 81.7083 31.472 77.0277 26.9093Z" fill="#6667AB"/>
</svg>
