<svg width="15" height="13" viewBox="0 0 15 13" fill="none" xmlns="http://www.w3.org/2000/svg">
<path fill-rule="evenodd" clip-rule="evenodd" d="M3.93191 0.856776C3.73817 0.856776 3.57022 0.964023 3.52729 1.11516L1.59938 7.90136C1.5486 8.08016 1.32628 8.19216 1.10281 8.15149C0.879336 8.11082 0.739359 7.933 0.790145 7.75421L2.71804 0.968033C2.84685 0.514633 3.35071 0.192871 3.93191 0.192871H10.9025C11.486 0.192871 11.9911 0.517062 12.1178 0.972681L14.844 10.7872C15.132 11.8238 14.146 12.8071 12.8187 12.8071H2.07573C0.725979 12.8071 -0.264391 11.7923 0.0629666 10.7447L0.220121 10.2419C0.358657 9.79854 0.856562 9.48759 1.42778 9.48759H11.1534C11.3826 9.48759 11.5683 9.63616 11.5683 9.81949C11.5683 10.0028 11.3826 10.1515 11.1534 10.1515H1.42778C1.23738 10.1515 1.07141 10.2551 1.02522 10.4029L0.868074 10.9058C0.671657 11.5343 1.26588 12.1432 2.07573 12.1432H12.8187C13.6152 12.1432 14.2067 11.5532 14.0339 10.9313L11.3077 1.11674C11.2654 0.964833 11.0971 0.856776 10.9025 0.856776H3.93191Z" fill="#6667AB"/>
</svg>
