<svg width="11" height="13" viewBox="0 0 11 13" fill="none" xmlns="http://www.w3.org/2000/svg">
<path d="M0.0302734 12.0169H0.317149L5.37792 5.43989C5.44412 5.3236 5.40734 5.26545 5.26758 5.26545H3.17854L5.37792 1.74438C5.44412 1.62809 5.39263 1.56994 5.2308 1.56994H2.42825C2.34734 1.56994 2.28114 1.60871 2.21494 1.68624L0.170033 6.46714C0.155321 6.58343 0.199456 6.64157 0.309793 6.64157H2.33263L0.0302734 12.0169ZM6.28268 7.92725H6.48128L10.321 2.97191C10.3578 2.92023 10.3651 2.875 10.3504 2.8427C10.3357 2.81039 10.2916 2.79747 10.2254 2.79747H8.68066L10.2842 0.19382C10.3725 0.0646069 10.3283 0 10.1518 0H8.13633C8.0407 0 7.96715 0.0387641 7.91566 0.122753L6.38566 3.6632C6.36359 3.72135 6.36359 3.76657 6.39301 3.79888C6.42244 3.83118 6.46657 3.8441 6.53277 3.8441H8.03335L6.28268 7.92725Z" fill="#717FFF"/>
</svg>
