<svg width="25" height="23" viewBox="0 0 25 23" fill="none" xmlns="http://www.w3.org/2000/svg">
<path d="M18.7987 15.1511C18.6816 15.0004 18.6057 14.8304 18.5763 14.6529C18.5435 14.4467 18.4311 14.2549 18.2559 14.106C18.2177 14.0772 18.176 14.0518 18.1316 14.0301C18.0929 14.0095 18.0511 13.9932 18.0073 13.9814C18.2648 13.3112 18.223 12.5867 17.8896 11.9399C17.5484 11.247 17.0662 10.6078 16.4639 10.0499C15.8647 9.56603 15.5015 8.91642 15.4437 8.22499C15.4568 7.06613 15.6007 4.90002 13.1155 4.90002H12.7885C10.0156 5.08414 10.7546 7.51018 10.7154 8.32246C10.6862 8.90928 10.4447 9.47529 10.0221 9.94704C9.25946 10.6717 8.65727 11.5021 8.2433 12.4001C8.05291 12.8329 7.98795 13.2966 8.05364 13.754C8.02649 13.771 8.00228 13.791 7.9817 13.8135C7.81167 13.9597 7.68741 14.1439 7.54353 14.2684C7.39181 14.3678 7.21536 14.4381 7.02688 14.4742C6.78632 14.5305 6.58204 14.6627 6.45791 14.8424C6.39739 14.9393 6.36811 15.0475 6.37289 15.1565C6.36644 15.2557 6.36644 15.3551 6.37289 15.4544C6.41921 15.6328 6.41921 15.8174 6.37289 15.9959C6.30366 16.1247 6.26843 16.2643 6.26956 16.4053C6.27069 16.5463 6.30814 16.6855 6.37943 16.8136C6.44637 16.9012 6.53651 16.975 6.64303 17.0294C6.74955 17.0838 6.86963 17.1174 6.99418 17.1277C7.61549 17.162 8.2277 17.2695 8.81227 17.4472L8.86459 17.3551L8.81881 17.4309C9.33732 17.6771 9.94201 17.7688 10.5323 17.6909C10.7041 17.6636 10.8657 17.6033 11.0043 17.5149C11.1429 17.4265 11.2545 17.3124 11.3301 17.1818C11.7094 17.1818 12.1345 17.041 12.8081 17.0139C13.2659 16.9815 13.8414 17.1493 14.4954 17.1168C14.5147 17.1748 14.541 17.2311 14.5739 17.2847C14.6757 17.4804 14.8491 17.6448 15.0697 17.7545C15.2903 17.8643 15.5469 17.914 15.8034 17.8966C16.0945 17.8661 16.3752 17.7876 16.6291 17.6657C16.8829 17.5439 17.1047 17.3812 17.2814 17.1872C17.7413 16.8431 18.2702 16.5682 18.8444 16.3749C18.9562 16.3324 19.0535 16.2676 19.1277 16.1863C19.2018 16.1051 19.2506 16.0099 19.2695 15.9092C19.2372 15.6155 19.0684 15.3437 18.7987 15.1511ZM12.6773 7.53184C12.6766 7.38948 12.7146 7.24881 12.7885 7.12028C12.8465 6.99809 12.9438 6.89135 13.0697 6.81161C13.1821 6.73937 13.3199 6.69945 13.4621 6.69789C13.5999 6.69655 13.7339 6.73482 13.8414 6.80619C13.9713 6.88301 14.0731 6.98792 14.1357 7.10945C14.2072 7.23463 14.243 7.37173 14.2404 7.51018C14.2424 7.6538 14.2067 7.79608 14.1357 7.92715C14.1008 7.99696 14.0546 8.06253 13.9984 8.1221H13.9395L13.7499 8.05712L13.606 8.01921C13.6542 7.98472 13.6961 7.94459 13.7303 7.90007C13.7652 7.82775 13.7829 7.75053 13.7826 7.67263C13.7897 7.59889 13.7763 7.52478 13.7433 7.45602C13.7231 7.39071 13.6825 7.33095 13.6256 7.28274C13.5793 7.24274 13.5159 7.2194 13.449 7.21775C13.386 7.21677 13.325 7.2362 13.279 7.2719C13.2175 7.31568 13.1703 7.37154 13.1417 7.43436C13.106 7.5067 13.086 7.5837 13.0828 7.6618C13.076 7.70494 13.076 7.74863 13.0828 7.79177C12.9552 7.7421 12.8214 7.70397 12.6839 7.67805C12.6807 7.63838 12.6807 7.59858 12.6839 7.55891L12.6773 7.53184ZM10.99 7.56974C10.98 7.44716 10.9978 7.32411 11.0424 7.20692C11.0753 7.10428 11.1408 7.0108 11.232 6.93616C11.3025 6.87036 11.4009 6.82962 11.5067 6.82244C11.6057 6.82369 11.7009 6.85445 11.7748 6.90908C11.8725 6.97576 11.9489 7.06131 11.9972 7.15818C12.0566 7.27119 12.0899 7.39242 12.0953 7.51559C12.1019 7.5678 12.1019 7.62043 12.0953 7.67263H12.0364C11.9461 7.69699 11.8602 7.73162 11.7814 7.77552C11.7879 7.72875 11.7879 7.6815 11.7814 7.63473C11.7788 7.57283 11.761 7.51202 11.7291 7.45602C11.7068 7.40499 11.6711 7.35872 11.6244 7.32064C11.5896 7.29646 11.5456 7.28307 11.5002 7.28274C11.4755 7.28456 11.4515 7.29084 11.4301 7.30113C11.4086 7.31142 11.3901 7.32547 11.3759 7.3423C11.3383 7.38625 11.3116 7.43595 11.2974 7.48851C11.2873 7.55141 11.2873 7.61515 11.2974 7.67805C11.3033 7.73954 11.3209 7.79987 11.3497 7.85675C11.3743 7.90813 11.4122 7.95437 11.4609 7.99213L11.3497 8.06795L11.2582 8.1221C11.1802 8.05769 11.12 7.98011 11.0816 7.89466C11.0224 7.78324 10.987 7.66413 10.977 7.54267L10.99 7.56974ZM11.1143 8.36579L11.4282 8.17084L11.5459 8.10044C11.6984 7.96172 11.886 7.85262 12.0953 7.78094C12.194 7.75205 12.298 7.7374 12.4027 7.73762C12.6894 7.74884 12.9662 7.82776 13.2005 7.96506C13.4237 8.05948 13.6555 8.13916 13.8938 8.20333C14.0237 8.24024 14.1345 8.31285 14.2077 8.40911C14.2287 8.44927 14.2396 8.49258 14.2396 8.53637C14.2396 8.58015 14.2287 8.62346 14.2077 8.66362C14.1392 8.77676 14.0417 8.87611 13.922 8.9547C13.8022 9.03329 13.6631 9.0892 13.5144 9.11851C13.3379 9.18461 13.1693 9.26439 13.0109 9.35678C12.8158 9.45876 12.5872 9.50796 12.3569 9.49757C12.2555 9.49558 12.1555 9.47718 12.0626 9.44342C11.9869 9.4158 11.9164 9.37933 11.8533 9.33512C11.7301 9.23543 11.5966 9.14483 11.4544 9.06435C11.2482 8.98825 11.0862 8.84828 11.0031 8.67446C10.9771 8.62015 10.9738 8.56015 10.994 8.50414C11.0142 8.44814 11.0566 8.3994 11.1143 8.36579ZM11.2189 16.8407C11.2153 17.0112 11.1393 17.1753 11.0041 17.304C10.869 17.4327 10.6834 17.5179 10.4799 17.5446C9.93772 17.6134 9.38345 17.5254 8.91037 17.2955C8.30936 17.105 7.67605 16.9936 7.03342 16.9652C6.94033 16.9582 6.85013 16.9348 6.76891 16.8965C6.68768 16.8582 6.61731 16.8059 6.56255 16.7432C6.48313 16.5193 6.51125 16.2788 6.64103 16.0717C6.69652 15.8703 6.69652 15.6612 6.64103 15.4598C6.57652 15.2943 6.57652 15.1162 6.64103 14.9507C6.68902 14.8802 6.75373 14.8184 6.83128 14.7691C6.90882 14.7198 6.9976 14.6839 7.09228 14.6637C7.31514 14.6244 7.52222 14.5386 7.69395 14.4146C7.86398 14.2684 7.98824 14.0843 8.13212 13.9543C8.18385 13.9002 8.24933 13.8561 8.32392 13.8252C8.39851 13.7943 8.48039 13.7774 8.56375 13.7756H8.67493C8.9482 13.8358 9.18264 13.9814 9.32892 14.1818L9.92405 15.0861C10.1539 15.4005 10.4165 15.6977 10.7088 15.9742C10.9765 16.2108 11.1441 16.513 11.1862 16.8352L11.2189 16.8407ZM11.1666 16.18C11.0881 16.0771 10.9966 15.9796 10.905 15.8767L10.7285 15.6872C10.8318 15.6894 10.9345 15.6728 11.0293 15.6385C11.1245 15.6038 11.1996 15.5397 11.2386 15.4598C11.2638 15.3467 11.2561 15.2303 11.2163 15.1201C11.1766 15.01 11.1057 14.9092 11.0097 14.8262C10.6859 14.4929 10.2886 14.2136 9.83903 14.0031C9.48343 13.8349 9.2138 13.5655 9.0804 13.2449C8.98546 12.9523 8.98546 12.6441 9.0804 12.3514C9.25831 11.8194 9.53877 11.3147 9.91097 10.8568C9.97637 10.8135 9.91097 10.938 9.64283 11.3983C9.3747 11.8586 8.89075 12.7521 9.55781 13.4886C9.58278 12.9516 9.72687 12.4229 9.98291 11.929C10.3557 11.2359 11.1274 10.0283 11.1928 9.06977C11.2535 9.10712 11.3168 9.14148 11.3824 9.17266C11.5173 9.2527 11.6462 9.33951 11.7683 9.43259C11.9274 9.54534 12.128 9.61022 12.3373 9.61671H12.4157C12.6467 9.61309 12.8723 9.55891 13.0697 9.45967C13.2222 9.37156 13.3842 9.29541 13.5537 9.23223C13.8136 9.16171 14.0416 9.02766 14.2077 8.84774C14.5073 9.68414 14.9083 10.4933 15.4045 11.2629C15.7428 11.771 15.9854 12.3188 16.1239 12.8875C16.2384 12.886 16.3528 12.8969 16.4639 12.92C16.5889 12.5387 16.588 12.1366 16.4615 11.7556C16.335 11.3746 16.0874 11.0287 15.7445 10.7539C15.6007 10.6348 15.5941 10.586 15.6661 10.586C16.1842 11.0038 16.5472 11.5356 16.7124 12.1186C16.8008 12.4156 16.8008 12.7259 16.7124 13.0229L16.8498 13.0716C17.5038 13.3424 17.7784 13.5807 17.6542 13.9056H17.5299C17.628 13.6511 17.4057 13.4615 16.8302 13.2449C16.2546 13.0283 15.7511 13.0446 15.6661 13.4886C15.6661 13.5157 15.6661 13.5374 15.6661 13.559L15.5287 13.6132C15.3907 13.6831 15.2725 13.7769 15.1822 13.8881C15.0919 13.9993 15.0316 14.1253 15.0055 14.2576C14.9226 14.5908 14.8788 14.93 14.8747 15.2702C14.8309 15.5203 14.7609 15.7667 14.6655 16.0067C14.1755 16.3317 13.5759 16.5229 12.9493 16.5539C12.3227 16.585 11.6998 16.4543 11.1666 16.18ZM18.7333 16.2179C18.1361 16.4158 17.5901 16.7062 17.1245 17.0735C16.804 17.4199 16.3364 17.6522 15.8165 17.7233C15.5981 17.7492 15.3756 17.715 15.183 17.6259C14.9904 17.5369 14.8385 17.398 14.7505 17.2306C14.637 16.9289 14.6508 16.6042 14.7897 16.31C14.928 15.9754 15.0287 15.631 15.0906 15.2811C15.0994 14.95 15.1431 14.6202 15.2213 14.2955C15.2406 14.1858 15.2879 14.0807 15.3601 13.9873C15.4323 13.894 15.5277 13.8144 15.6399 13.754H15.6726C15.6646 13.9123 15.7156 14.0689 15.8185 14.2025C15.9214 14.3362 16.0713 14.4404 16.2481 14.5013C16.4694 14.5128 16.6909 14.4816 16.8952 14.4102C17.0995 14.3388 17.2809 14.2291 17.4253 14.0897H17.5626C17.6616 14.0784 17.7623 14.0847 17.8581 14.108C17.9539 14.1314 18.0427 14.1713 18.1185 14.2251C18.2617 14.3579 18.3509 14.5246 18.3736 14.7016C18.4191 14.908 18.5221 15.1027 18.6744 15.2702C18.9949 15.5627 19.0995 15.763 19.0864 15.893C19.0733 16.023 18.9425 16.115 18.7333 16.2179ZM11.232 8.6907C11.1274 8.6203 11.1405 8.52283 11.1797 8.52283C11.2189 8.52283 11.2713 8.61489 11.317 8.64738C11.3913 8.71061 11.47 8.77027 11.5525 8.82608C11.7664 8.9774 12.0364 9.06342 12.3176 9.06977C12.6434 9.04456 12.9573 8.95546 13.2332 8.80984C13.3809 8.73601 13.5229 8.65462 13.6583 8.56615C13.763 8.50117 13.7564 8.42535 13.8414 8.43618C13.9265 8.44701 13.8414 8.51741 13.7433 8.60406C13.6048 8.70408 13.4535 8.79124 13.2921 8.86399C12.9984 9.01886 12.6643 9.11353 12.3176 9.14017C12.0062 9.13013 11.7094 9.02835 11.4805 8.85316C11.3946 8.80236 11.3116 8.74814 11.232 8.6907Z" fill="#717FFF"/>
</svg>
