<svg width="19" height="20" viewBox="0 0 19 20" fill="none" xmlns="http://www.w3.org/2000/svg">
<path fill-rule="evenodd" clip-rule="evenodd" d="M18.9589 7.5645V1.04863C18.9589 0.472256 18.5004 0 17.9408 0H8.32291C7.31404 0 7.30089 1.56943 7.30089 2.57831V7.5645C7.30089 8.60425 8.72686 8.18793 9.44401 7.43509C11.4624 5.31628 15.4996 1.12498 15.4996 1.5C15.4996 1.93801 10.8093 8.94394 9.64623 10.6744C9.47759 10.9254 9.34578 11.3103 9.62472 11.4269C9.67524 11.4469 9.72576 11.4588 9.77628 11.4588C9.87732 11.4588 9.97447 11.4189 10.0483 11.3428L14.0599 5.95102C15.1405 4.49866 17.4382 5.08336 17.6931 6.87558L17.7119 7.00761C17.8432 7.93104 18.9589 8.49723 18.9589 7.5645ZM13.4998 17.6944C13.4998 17.5023 13.426 17.3182 13.2938 17.1821L10.7019 14.5126C10.4259 14.2284 9.97518 14.2284 9.69926 14.5126L8.83658 15.4011C8.70478 15.5368 9.7888 16.8678 10.4484 17.6776C10.9168 18.2527 11.1712 18.565 10.6241 17.9999C10.3748 17.7439 10.046 17.4242 9.66993 17.0586C8.05321 15.4868 5.56286 13.0656 4.75627 11.1986C4.38415 10.3372 4.41143 9.99615 4.59127 9.90659C4.79916 9.80306 5.04726 9.75276 5.25982 9.70966C5.64295 9.63198 5.91057 9.57771 5.61895 9.27738L3.02698 6.60781C2.75107 6.32365 2.30419 6.32365 2.02828 6.60781L0.815843 7.85651C-0.552041 9.26536 0.850827 12.9156 4.01013 16.1695C6.34952 18.579 8.90263 19.9998 10.6241 19.9998C11.2265 19.9998 11.7278 19.8238 12.0814 19.4595L13.2938 18.2108C13.426 18.0747 13.4998 17.8906 13.4998 17.6944Z" fill="#6667AB"/>
</svg>
