<svg width="24" height="24" viewBox="0 0 24 24" fill="none" xmlns="http://www.w3.org/2000/svg">
<path d="M3.5127 16.9708C3.5127 16.4347 3.94735 16 4.48353 16C5.0197 16 5.45436 16.4347 5.45436 16.9708V20.0292C5.45436 20.5653 5.0197 21 4.48353 21C3.94735 21 3.5127 20.5653 3.5127 20.0292V16.9708ZM7.39603 13.9708C7.39603 13.4347 7.83069 13 8.36686 13C8.90304 13 9.33769 13.4347 9.33769 13.9708V20.0292C9.33769 20.5653 8.90304 21 8.36686 21C7.83069 21 7.39603 20.5653 7.39603 20.0292V13.9708ZM11.2794 10.9708C11.2794 10.4347 11.714 10 12.2502 10C12.7864 10 13.221 10.4347 13.221 10.9708V20.0292C13.221 20.5653 12.7864 21 12.2502 21C11.714 21 11.2794 20.5653 11.2794 20.0292V10.9708ZM15.1627 7.97083C15.1627 7.43466 15.5974 7 16.1335 7C16.6697 7 17.1044 7.43466 17.1044 7.97083V20.0292C17.1044 20.5653 16.6697 21 16.1335 21C15.5974 21 15.1627 20.5653 15.1627 20.0292V7.97083ZM19.046 4.97083C19.046 4.43466 19.4807 4 20.0169 4C20.553 4 20.9877 4.43466 20.9877 4.97083V20.0292C20.9877 20.5653 20.553 21 20.0169 21C19.4807 21 19.046 20.5653 19.046 20.0292V4.97083Z" fill="#6667AB"/>
</svg>
