<svg width="120" height="121" viewBox="0 0 120 121" fill="none" xmlns="http://www.w3.org/2000/svg">
<path d="M27.0963 74.5487L18.1563 113.576C17.8794 114.758 17.9625 115.996 18.3947 117.129C18.8269 118.263 19.5881 119.238 20.5789 119.929C21.5697 120.619 22.744 120.993 23.9484 121C25.1529 121.007 26.3315 120.648 27.3303 119.969L60.0005 98.0121L92.6707 119.969C93.6927 120.653 94.898 121.006 96.1245 120.979C97.351 120.951 98.5398 120.546 99.5311 119.818C100.522 119.089 101.269 118.072 101.669 116.903C102.07 115.734 102.106 114.47 101.773 113.279L90.7987 74.5668L118.015 49.8755C118.887 49.0842 119.509 48.0527 119.805 46.9086C120.102 45.7645 120.059 44.5578 119.682 43.438C119.306 42.3181 118.612 41.3341 117.686 40.6076C116.761 39.8811 115.644 39.4441 114.475 39.3505L80.2686 36.6043L65.4665 3.57164C64.9946 2.50798 64.2273 1.60477 63.2574 0.971003C62.2875 0.337235 61.1563 0 60.0005 0C58.8447 0 57.7135 0.337235 56.7436 0.971003C55.7737 1.60477 55.0065 2.50798 54.5345 3.57164L39.7324 36.6043L5.52619 39.3445C4.37692 39.4362 3.2782 39.8599 2.3615 40.5647C1.4448 41.2695 0.74892 42.2256 0.357119 43.3187C-0.0346825 44.4118 -0.105816 45.5955 0.152228 46.7283C0.410272 47.8611 0.986568 48.8949 1.81217 49.7061L27.0963 74.5487ZM44.2144 48.3814C45.2854 48.2964 46.3139 47.9224 47.1922 47.2988C48.0706 46.6751 48.7663 45.8247 49.2064 44.8368L60.0005 20.7564L70.7946 44.8368C71.2347 45.8247 71.9305 46.6751 72.8088 47.2988C73.6871 47.9224 74.7156 48.2964 75.7866 48.3814L99.6187 50.2868L79.9926 68.0946C78.2886 69.6431 77.6106 72.0263 78.2346 74.2523L85.7526 100.776L63.3365 85.7088C62.3526 85.043 61.1945 84.6875 60.0095 84.6875C58.8245 84.6875 57.6664 85.043 56.6825 85.7088L33.2583 101.454L39.5584 73.9559C39.7894 72.9445 39.7584 71.8903 39.4684 70.8945C39.1783 69.8987 38.6391 68.9949 37.9024 68.27L19.6743 50.3533L44.2144 48.3814Z" fill="#6667AB"/>
</svg>
