<svg width="85" height="106" viewBox="0 0 85 106" fill="none" xmlns="http://www.w3.org/2000/svg">
<path d="M42.5 0C27.8534 0 15.9375 11.8879 15.9375 26.5V42.4H10.625C4.76531 42.4 0 47.1541 0 53V95.4C0 101.246 4.76531 106 10.625 106H74.375C80.2347 106 85 101.246 85 95.4V53C85 47.1541 80.2347 42.4 74.375 42.4H69.0625V26.5C69.0625 11.8879 57.1466 0 42.5 0ZM74.375 53L74.3856 95.4H10.625V53H74.375ZM26.5625 42.4V26.5C26.5625 17.7338 33.7131 10.6 42.5 10.6C51.2869 10.6 58.4375 17.7338 58.4375 26.5V42.4H26.5625Z" fill="#6667AB"/>
</svg>
